<?xml version="1.0" encoding="UTF-8" standalone="no"?>
<svg
   xmlns:dc="http://purl.org/dc/elements/1.1/"
   xmlns:cc="http://creativecommons.org/ns#"
   xmlns:rdf="http://www.w3.org/1999/02/22-rdf-syntax-ns#"
   xmlns:svg="http://www.w3.org/2000/svg"
   xmlns="http://www.w3.org/2000/svg"
   xmlns:sodipodi="http://sodipodi.sourceforge.net/DTD/sodipodi-0.dtd"
   xmlns:inkscape="http://www.inkscape.org/namespaces/inkscape"
   width="44.566025"
   height="49.022076"
   version="1.1"
   viewBox="0 0 356.5282 392.1766"
   id="svg38"
   sodipodi:docname="chrono.svg"
   inkscape:version="0.92.4 (5da689c313, 2019-01-14)">
  <metadata
     id="metadata44">
    <rdf:RDF>
      <cc:Work
         rdf:about="">
        <dc:format>image/svg+xml</dc:format>
        <dc:type
           rdf:resource="http://purl.org/dc/dcmitype/StillImage" />
        <dc:title></dc:title>
      </cc:Work>
    </rdf:RDF>
  </metadata>
  <defs
     id="defs42" />
  <sodipodi:namedview
     pagecolor="#ffffff"
     bordercolor="#666666"
     borderopacity="1"
     objecttolerance="10"
     gridtolerance="10"
     guidetolerance="10"
     inkscape:pageopacity="0"
     inkscape:pageshadow="2"
     inkscape:window-width="1920"
     inkscape:window-height="1009"
     id="namedview40"
     showgrid="false"
     units="px"
     fit-margin-top="0"
     fit-margin-left="0"
     fit-margin-right="0"
     fit-margin-bottom="0"
     inkscape:zoom="5.3258681"
     inkscape:cx="-54.747994"
     inkscape:cy="-16.607272"
     inkscape:window-x="1912"
     inkscape:window-y="-8"
     inkscape:window-maximized="1"
     inkscape:current-layer="svg38" />
  <g
     id="g36"
     transform="translate(-197.7359,-176.2134)">
    <path
       d="m 398.2,228.01 h -44.398 c -3.9219,-0.004 -7.6836,-1.5664 -10.457,-4.3398 -2.7773,-2.7734 -4.3359,-6.5352 -4.3398,-10.461 v -22.199 c 0.004,-3.9219 1.5625,-7.6836 4.3398,-10.457 2.7734,-2.7773 6.5352,-4.3359 10.457,-4.3398 H 398.2 c 3.9258,0.004 7.6875,1.5625 10.461,4.3398 2.7734,2.7734 4.3359,6.5352 4.3398,10.457 v 22.199 c -0.004,3.9258 -1.5664,7.6875 -4.3398,10.461 -2.7734,2.7734 -6.5352,4.3359 -10.461,4.3398 z m -44.398,-37 v 22.199 h 44.41 l -0.0117,-22.199 z"
       id="path2"
       inkscape:connector-curvature="0" />
    <path
       d="m 390.8,257.61 h -29.598 c -4.0859,0 -7.4023,-3.3125 -7.4023,-7.3984 v -29.598 c 0,-4.0898 3.3164,-7.4023 7.4023,-7.4023 H 390.8 c 1.9609,0 3.8438,0.78125 5.2305,2.168 1.3906,1.3867 2.168,3.2695 2.168,5.2344 v 29.598 c 0,1.9609 -0.77734,3.8438 -2.168,5.2305 -1.3867,1.3906 -3.2695,2.168 -5.2305,2.168 z m -22.199,-14.801 h 14.801 v -14.797 h -14.801 z"
       id="path4"
       inkscape:connector-curvature="0" />
    <path
       d="m 222.99,301.32 c -3.9258,0.008 -7.6914,-1.5508 -10.465,-4.3281 l -10.461,-10.461 c -2.7734,-2.7773 -4.3281,-6.543 -4.3281,-10.465 0,-3.922 1.5547,-7.6875 4.3281,-10.465 l 33.93,-33.934 c 2.7773,-2.7734 6.543,-4.3281 10.465,-4.3281 3.9258,0 7.6875,1.5547 10.465,4.3281 l 10.465,10.465 c 2.7695,2.7773 4.3281,6.5391 4.3281,10.461 0,3.9258 -1.5586,7.6875 -4.3281,10.465 l -33.934,33.934 c -2.7734,2.7773 -6.5391,4.3359 -10.465,4.3281 z m 23.469,-59.191 -33.934,33.938 10.465,10.465 33.941,-33.941 z"
       id="path6"
       inkscape:connector-curvature="0" />
    <path
       d="m 255.66,313.59 c -1.9648,0 -3.8438,-0.77734 -5.2344,-2.1641 l -20.926,-20.934 v -0.004 c -2.8906,-2.8867 -2.8906,-7.5742 0,-10.461 l 20.926,-20.926 v -0.004 c 2.8906,-2.8867 7.5742,-2.8867 10.465,0 l 20.93,20.926 v 0.004 c 2.8906,2.88671 2.8906,7.57421 0,10.461 l -20.93,20.93401 v 0.004 c -1.3867,1.3867 -3.2695,2.1641 -5.2305,2.1641 z m -10.465,-28.336 10.465,10.473 10.469,-10.473 -10.469,-10.465 z"
       id="path8"
       inkscape:connector-curvature="0" />
    <path
       d="m 529.01,301.32 c -3.9258,0.008 -7.6914,-1.5508 -10.465,-4.3281 l -33.934,-33.934 c -2.7734,-2.7773 -4.3281,-6.5391 -4.3281,-10.465 0,-3.9219 1.5547,-7.6836 4.3281,-10.461 l 10.465,-10.465 h -0.004 c 2.7812,-2.7734 6.543,-4.3281 10.469,-4.3281 3.9219,0 7.6875,1.5547 10.465,4.3281 l 33.93,33.934 c 2.7695,2.7773 4.3281,6.543 4.3281,10.465 0,3.922 -1.5586,7.6875 -4.3281,10.465 l -10.465,10.465 v -0.004 c -2.7734,2.7773 -6.5391,4.3359 -10.461,4.3281 z m -23.469,-59.191 -10.469,10.465 33.941,33.941 10.457,-10.473 z"
       id="path10"
       inkscape:connector-curvature="0" />
    <path
       d="m 496.35,313.59 c -1.9609,0 -3.8438,-0.77734 -5.2305,-2.1641 l -20.934,-20.938 c -2.8867,-2.8867 -2.8867,-7.5742 0,-10.461 l 20.93,-20.926 0.004,-0.004 c 2.8867,-2.8867 7.5742,-2.8867 10.461,0 l 20.93,20.93 c 2.8867,2.8867 2.8867,7.5742 0,10.461 l -20.926,20.934 -0.004,0.004 c -1.3867,1.3867 -3.2695,2.1641 -5.2305,2.1641 z m -10.469,-28.336 10.469,10.473 10.465,-10.473 -10.465,-10.465 z"
       id="path12"
       inkscape:connector-curvature="0" />
    <path
       d="m 376,568.39 c -43.176,0 -84.582,-17.152 -115.11,-47.684 -30.531,-30.527 -47.684,-71.934 -47.684,-115.11 0,-43.176 17.152,-84.586 47.684,-115.11 30.527,-30.531 71.934,-47.68 115.11,-47.68 43.176,0 84.586,17.148 115.11,47.68 30.531,30.527 47.68,71.938 47.68,115.11 -0.0469,43.16 -17.215,84.539 -47.734,115.06 -30.52,30.52 -71.898,47.684 -115.06,47.734 z m 0,-310.79 c -39.25,0 -76.891,15.594 -104.64,43.348 -27.758,27.754 -43.348,65.398 -43.348,104.65 0,39.252 15.59,76.891 43.348,104.64 27.754,27.758 65.395,43.348 104.64,43.348 39.245,0 76.895,-15.59 104.65,-43.348 27.754,-27.754 43.348,-65.395 43.348,-104.64 -0.043,-39.238 -15.652,-76.855 -43.395,-104.6 -27.746,-27.742 -65.363,-43.348 -104.6,-43.395 z"
       id="path14"
       inkscape:connector-curvature="0" />
    <path
       d="m 376,538.79 c -35.324,0 -69.203,-14.031 -94.18,-39.012 -24.98,-24.977 -39.012,-58.855 -39.012,-94.18 0,-35.328 14.031,-69.207 39.012,-94.184 24.977,-24.98 58.855,-39.012 94.18,-39.012 35.328,0 69.207,14.031 94.184,39.012 24.98,24.977 39.012,58.855 39.012,94.184 -0.0391,35.312 -14.086,69.168 -39.055,94.137 -24.973,24.969 -58.828,39.016 -94.141,39.055 z m 0,-251.59 c -31.398,0 -61.512,12.477 -83.715,34.68 -22.207,22.203 -34.68,52.316 -34.68,83.719 0,31.398 12.473,61.512 34.68,83.715 22.203,22.207 52.316,34.68 83.715,34.68 31.402,0 61.516,-12.473 83.719,-34.68 22.203,-22.203 34.68,-52.316 34.68,-83.715 -0.0391,-31.391 -12.523,-61.484 -34.719,-83.68 C 437.485,299.724 407.391,287.239 376,287.2 Z"
       id="path16"
       inkscape:connector-curvature="0" />
    <path
       d="m 383.4,302 c 0,4.0859 -3.3125,7.3984 -7.4023,7.3984 -4.0859,0 -7.3984,-3.3125 -7.3984,-7.3984 0,-4.0859 3.3125,-7.3984 7.3984,-7.3984 4.0898,0 7.4023,3.3125 7.4023,7.3984"
       id="path18"
       inkscape:connector-curvature="0" />
    <path
       d="m 310.15,332.35 c 0,4.0859 -3.3125,7.3984 -7.3984,7.3984 -4.0898,0 -7.4023,-3.3125 -7.4023,-7.3984 0,-4.0859 3.3125,-7.4023 7.4023,-7.4023 4.0859,0 7.3984,3.3164 7.3984,7.4023"
       id="path20"
       inkscape:connector-curvature="0" />
    <path
       d="m 279.8,405.6 c 0,4.0859 -3.3125,7.3984 -7.3984,7.3984 -4.0859,0 -7.3984,-3.3125 -7.3984,-7.3984 0,-4.0898 3.3125,-7.4023 7.3984,-7.4023 4.0859,0 7.3984,3.3125 7.3984,7.4023"
       id="path22"
       inkscape:connector-curvature="0" />
    <path
       d="m 310.15,478.86 c 0,4.0859 -3.3125,7.3984 -7.3984,7.3984 -4.0898,0 -7.4023,-3.3125 -7.4023,-7.3984 0,-4.0898 3.3125,-7.4023 7.4023,-7.4023 4.0859,0 7.3984,3.3125 7.3984,7.4023"
       id="path24"
       inkscape:connector-curvature="0" />
    <path
       d="m 383.4,509.2 c 0,4.0859 -3.3125,7.4023 -7.4023,7.4023 -4.0859,0 -7.3984,-3.3164 -7.3984,-7.4023 0,-4.0859 3.3125,-7.3984 7.3984,-7.3984 4.0898,0 7.4023,3.3125 7.4023,7.3984"
       id="path26"
       inkscape:connector-curvature="0" />
    <path
       d="m 456.66,478.86 c 0,4.0859 -3.3164,7.3984 -7.4023,7.3984 -4.0859,0 -7.3984,-3.3125 -7.3984,-7.3984 0,-4.0898 3.3125,-7.4023 7.3984,-7.4023 4.0859,0 7.4023,3.3125 7.4023,7.4023"
       id="path28"
       inkscape:connector-curvature="0" />
    <path
       d="m 487,405.6 c 0,4.0859 -3.3125,7.3984 -7.3984,7.3984 -4.0859,0 -7.3984,-3.3125 -7.3984,-7.3984 0,-4.0898 3.3125,-7.4023 7.3984,-7.4023 4.0859,0 7.3984,3.3125 7.3984,7.4023"
       id="path30"
       inkscape:connector-curvature="0" />
    <path
       d="m 456.66,332.35 c 0,4.0859 -3.3164,7.3984 -7.4023,7.3984 -4.0859,0 -7.3984,-3.3125 -7.3984,-7.3984 0,-4.0859 3.3125,-7.4023 7.3984,-7.4023 4.0859,0 7.4023,3.3164 7.4023,7.4023"
       id="path32"
       inkscape:connector-curvature="0" />
    <path
       d="m 420.4,413 h -44.398 c -4.0859,0 -7.3984,-3.3125 -7.3984,-7.3984 v -74 c 0,-4.0859 3.3125,-7.3984 7.3984,-7.3984 4.0898,0 7.4023,3.3125 7.4023,7.3984 v 66.598 h 37 -0.004 c 4.0898,0 7.4023,3.3125 7.4023,7.4023 0,4.0859 -3.3125,7.3984 -7.4023,7.3984 z"
       id="path34"
       inkscape:connector-curvature="0" />
  </g>
</svg>
