<?xml version="1.0" encoding="UTF-8" standalone="no"?>
<svg
   xmlns:dc="http://purl.org/dc/elements/1.1/"
   xmlns:cc="http://creativecommons.org/ns#"
   xmlns:rdf="http://www.w3.org/1999/02/22-rdf-syntax-ns#"
   xmlns:svg="http://www.w3.org/2000/svg"
   xmlns="http://www.w3.org/2000/svg"
   xmlns:sodipodi="http://sodipodi.sourceforge.net/DTD/sodipodi-0.dtd"
   xmlns:inkscape="http://www.inkscape.org/namespaces/inkscape"
   width="49.850002"
   height="49.850002"
   version="1.1"
   viewBox="0 0 378.86001 378.86001"
   id="svg32"
   sodipodi:docname="clock.svg"
   inkscape:version="0.92.4 (5da689c313, 2019-01-14)">
  <metadata
     id="metadata38">
    <rdf:RDF>
      <cc:Work
         rdf:about="">
        <dc:format>image/svg+xml</dc:format>
        <dc:type
           rdf:resource="http://purl.org/dc/dcmitype/StillImage" />
        <dc:title></dc:title>
      </cc:Work>
    </rdf:RDF>
  </metadata>
  <defs
     id="defs36" />
  <sodipodi:namedview
     pagecolor="#ffffff"
     bordercolor="#666666"
     borderopacity="1"
     objecttolerance="10"
     gridtolerance="10"
     guidetolerance="10"
     inkscape:pageopacity="0"
     inkscape:pageshadow="2"
     inkscape:window-width="1920"
     inkscape:window-height="1009"
     id="namedview34"
     showgrid="false"
     fit-margin-top="0"
     fit-margin-left="0"
     fit-margin-right="0"
     fit-margin-bottom="0"
     scale-x="7.6"
     inkscape:zoom="0.23537234"
     inkscape:cx="252.57333"
     inkscape:cy="-202.72334"
     inkscape:window-x="1912"
     inkscape:window-y="-8"
     inkscape:window-maximized="1"
     inkscape:current-layer="svg32"
     units="px" />
  <g
     id="g30"
     transform="translate(-186.57,-186.57)">
    <path
       d="m 376,186.57 c -104.47,0 -189.43,84.961 -189.43,189.43 0,104.469 84.961,189.43 189.43,189.43 104.469,0 189.43,-84.961 189.43,-189.43 0,-104.469 -84.961,-189.43 -189.43,-189.43 z m 0,364.75 c -96.707,0 -175.32,-78.66 -175.32,-175.32 0,-96.707 78.66,-175.32 175.32,-175.32 96.66,0.004 175.32,78.617 175.32,175.32 0,96.707 -78.613,175.32 -175.32,175.32 z"
       id="path2"
       inkscape:connector-curvature="0" />
    <path
       d="m 376,251.64 c 3.8828,0 7.0547,-3.1719 7.0547,-7.0547 v -27.184 c 0,-3.8828 -3.1719,-7.0547 -7.0547,-7.0547 -3.8828,0 -7.0547,3.1719 -7.0547,7.0547 v 27.184 c 0,3.9258 3.1719,7.0547 7.0547,7.0547 z"
       id="path4"
       inkscape:connector-curvature="0" />
    <path
       d="m 302.83,235.16 c -1.9414,-3.3633 -6.25,-4.5469 -9.6133,-2.5586 -3.3633,1.9414 -4.5469,6.25 -2.5586,9.6133 l 13.59,23.535 c 1.3242,2.2734 3.6953,3.5039 6.1094,3.5039 1.1836,0 2.4141,-0.28516 3.5039,-0.94531 3.3633,-1.9414 4.5469,-6.25 2.5586,-9.6133 z"
       id="path6"
       inkscape:connector-curvature="0" />
    <path
       d="m 265.75,304.21 -23.535,-13.59 c -3.3633,-1.9414 -7.6719,-0.80469 -9.6133,2.5586 -1.9414,3.3633 -0.80469,7.6719 2.5586,9.6133 l 23.535,13.59 c 1.0898,0.66406 2.3203,0.94531 3.5039,0.94531 2.4141,0 4.7812,-1.2773 6.1094,-3.5039 1.9414,-3.3633 0.80469,-7.6719 -2.5586,-9.6133 z"
       id="path8"
       inkscape:connector-curvature="0" />
    <path
       d="m 251.64,376 c 0,-3.8828 -3.1719,-7.0547 -7.0547,-7.0547 h -27.184 c -3.8828,0 -7.0547,3.1719 -7.0547,7.0547 0,3.8828 3.1719,7.0547 7.0547,7.0547 h 27.184 c 3.9258,0.004 7.0547,-3.168 7.0547,-7.0547 z"
       id="path10"
       inkscape:connector-curvature="0" />
    <path
       d="m 258.7,435.58 -23.535,13.59 c -3.3633,1.9414 -4.5469,6.25 -2.5586,9.6133 1.3242,2.2734 3.6953,3.5039 6.1094,3.5039 1.1836,0 2.4141,-0.28516 3.5039,-0.94531 l 23.535,-13.59 c 3.3633,-1.9414 4.5469,-6.25 2.5586,-9.6133 -1.9414,-3.3164 -6.25,-4.5 -9.6133,-2.5586 z"
       id="path12"
       inkscape:connector-curvature="0" />
    <path
       d="m 313.82,483.7 c -3.3633,-1.9414 -7.6719,-0.80469 -9.6133,2.5586 l -13.59,23.535 c -1.9414,3.3633 -0.80469,7.6719 2.5586,9.6133 1.0898,0.66406 2.3203,0.94531 3.5039,0.94531 2.4141,0 4.7812,-1.2773 6.1094,-3.5039 l 13.59,-23.535 c 1.9883,-3.3633 0.80469,-7.6719 -2.5586,-9.6133 z"
       id="path14"
       inkscape:connector-curvature="0" />
    <path
       d="m 376,500.32 c -3.8828,0 -7.0547,3.1719 -7.0547,7.0547 v 27.184 c 0,3.8828 3.1719,7.0547 7.0547,7.0547 3.8828,0 7.0547,-3.1719 7.0547,-7.0547 v -27.184 c 0.004,-3.8828 -3.168,-7.0547 -7.0547,-7.0547 z"
       id="path16"
       inkscape:connector-curvature="0" />
    <path
       d="m 447.8,486.25 c -1.9414,-3.3633 -6.25,-4.5469 -9.6133,-2.5586 -3.3633,1.9414 -4.5469,6.25 -2.5586,9.6133 l 13.59,23.535 c 1.3242,2.2734 3.6953,3.5039 6.1094,3.5039 1.1836,0 2.4141,-0.28516 3.5039,-0.94531 3.3633,-1.9414 4.5469,-6.25 2.5586,-9.6133 z"
       id="path18"
       inkscape:connector-curvature="0" />
    <path
       d="m 516.84,449.17 -23.535,-13.59 c -3.3633,-1.9414 -7.6719,-0.80469 -9.6133,2.5586 -1.9414,3.3633 -0.80469,7.6719 2.5586,9.6133 l 23.535,13.59 c 1.0898,0.66406 2.3203,0.94531 3.5039,0.94531 2.4141,0 4.7812,-1.2773 6.1094,-3.5039 1.9883,-3.3594 0.80469,-7.668 -2.5586,-9.6133 z"
       id="path20"
       inkscape:connector-curvature="0" />
    <path
       d="m 500.32,376 c 0,3.8828 3.1719,7.0547 7.0547,7.0547 h 27.184 c 3.8828,0 7.0547,-3.1719 7.0547,-7.0547 0,-3.8828 -3.1719,-7.0547 -7.0547,-7.0547 h -27.184 c -3.8828,0 -7.0547,3.1719 -7.0547,7.0547 z"
       id="path22"
       inkscape:connector-curvature="0" />
    <path
       d="m 483.7,313.82 c 1.3242,2.2734 3.6953,3.5039 6.1094,3.5039 1.1836,0 2.4141,-0.28516 3.5039,-0.94531 l 23.535,-13.59 c 3.3633,-1.9414 4.5469,-6.25 2.5586,-9.6133 -1.9414,-3.3633 -6.25,-4.5469 -9.6133,-2.5586 l -23.535,13.59 c -3.3672,1.9414 -4.5,6.25 -2.5586,9.6133 z"
       id="path24"
       inkscape:connector-curvature="0" />
    <path
       d="m 458.83,232.55 c -3.4102,-1.9414 -7.6719,-0.80469 -9.6133,2.5586 l -13.59,23.535 c -1.9414,3.3633 -0.80469,7.6719 2.5586,9.6133 1.0898,0.66406 2.3203,0.94531 3.5039,0.94531 2.4141,0 4.7812,-1.2773 6.1094,-3.5039 l 13.59,-23.535 c 1.9375,-3.3633 0.80078,-7.6719 -2.5586,-9.6133 z"
       id="path26"
       inkscape:connector-curvature="0" />
    <path
       d="m 423.22,293.41 c -3.3633,-1.9883 -7.6719,-0.89844 -9.6602,2.4609 l -30.5,51.43 v -78.52 c 0,-3.8828 -3.1719,-7.0547 -7.0547,-7.0547 -3.8828,0 -7.0547,3.1719 -7.0547,7.0547 l -0.004,87.328 c -6.582,2.7461 -11.27,9.2812 -11.27,16.906 0,10.086 8.1914,18.328 18.328,18.328 10.133,0 18.328,-8.1914 18.328,-18.328 0,-4.0742 -1.375,-7.8125 -3.6484,-10.891 l 34.996,-59.055 c 1.9883,-3.3633 0.85156,-7.6719 -2.4609,-9.6602 z"
       id="path28"
       inkscape:connector-curvature="0" />
  </g>
</svg>
