<?xml version="1.0" encoding="UTF-8" standalone="no"?>
<svg
   xmlns:dc="http://purl.org/dc/elements/1.1/"
   xmlns:cc="http://creativecommons.org/ns#"
   xmlns:rdf="http://www.w3.org/1999/02/22-rdf-syntax-ns#"
   xmlns:svg="http://www.w3.org/2000/svg"
   xmlns="http://www.w3.org/2000/svg"
   xmlns:sodipodi="http://sodipodi.sourceforge.net/DTD/sodipodi-0.dtd"
   xmlns:inkscape="http://www.inkscape.org/namespaces/inkscape"
   width="84.486526"
   height="50.18821"
   version="1.1"
   viewBox="100 0 321.0488 190.71519"
   id="svg20"
   sodipodi:docname="digital-clock.svg"
   inkscape:version="0.92.4 (5da689c313, 2019-01-14)">
  <metadata
     id="metadata26">
    <rdf:RDF>
      <cc:Work
         rdf:about="">
        <dc:format>image/svg+xml</dc:format>
        <dc:type
           rdf:resource="http://purl.org/dc/dcmitype/StillImage" />
        <dc:title></dc:title>
      </cc:Work>
    </rdf:RDF>
  </metadata>
  <defs
     id="defs24" />
  <sodipodi:namedview
     pagecolor="#ffffff"
     bordercolor="#666666"
     borderopacity="1"
     objecttolerance="10"
     gridtolerance="10"
     guidetolerance="10"
     inkscape:pageopacity="0"
     inkscape:pageshadow="2"
     inkscape:window-width="1920"
     inkscape:window-height="1009"
     id="namedview22"
     showgrid="false"
     fit-margin-top="0"
     fit-margin-left="0"
     fit-margin-right="0"
     fit-margin-bottom="0"
     scale-x="3.8"
     viewbox-x="100"
     inkscape:zoom="0.66573351"
     inkscape:cx="186.34543"
     inkscape:cy="-96.165182"
     inkscape:window-x="1912"
     inkscape:window-y="-8"
     inkscape:window-maximized="1"
     inkscape:current-layer="svg20"
     units="px" />
  <g
     id="g18"
     transform="translate(-115.4678,-280.6436)">
    <path
       d="m 531.79,306.98 h -11.859 v -21.602 c 0,-2.6133 -2.1172,-4.7344 -4.7344,-4.7344 h -121.16 c -2.6172,0 -4.7344,2.1211 -4.7344,4.7344 v 21.602 h -169.1 c -2.6133,0 -4.7344,2.1211 -4.7344,4.7344 v 154.91 c 0,2.6172 2.1211,4.7344 4.7344,4.7344 h 311.58 c 2.6172,0 4.7344,-2.1172 4.7344,-4.7344 v -154.91 c 0.004,-2.6133 -2.1133,-4.7344 -4.7344,-4.7344 z m -21.324,0 h -31.027 v -16.863 h 31.027 z m -72.023,0 v -16.863 h 31.523 v 16.863 z m -39.664,-16.859 h 30.195 v 16.863 h -30.195 z m 128.28,171.77 h -302.11 v -145.44 h 302.11 z"
       id="path2"
       inkscape:connector-curvature="0" />
    <path
       d="m 249.86,444.8 h 251.39 c 2.6172,0 4.7344,-2.1172 4.7344,-4.7344 v -100.91 c 0,-2.6133 -2.1172,-4.7344 -4.7344,-4.7344 H 249.86 c -2.6133,0 -4.7344,2.1211 -4.7344,4.7344 v 100.91 c 0,2.6172 2.1211,4.7344 4.7344,4.7344 z m 4.7344,-100.91 h 241.92 v 91.445 l -241.92,-0.004 z"
       id="path4"
       inkscape:connector-curvature="0" />
    <path
       d="m 293.91,359.92 c -2.6133,0 -4.7344,2.1211 -4.7344,4.7344 v 46.176 c 0,2.6172 2.1211,4.7344 4.7344,4.7344 2.6133,0 4.7344,-2.1172 4.7344,-4.7344 v -46.176 c 0.004,-2.6133 -2.1172,-4.7344 -4.7344,-4.7344 z"
       id="path6"
       inkscape:connector-curvature="0" />
    <path
       d="m 334.17,359.92 c -2.6133,0 -4.7344,2.1211 -4.7344,4.7344 v 46.176 c 0,2.6172 2.1211,4.7344 4.7344,4.7344 2.6133,0 4.7344,-2.1172 4.7344,-4.7344 v -46.176 c 0,-2.6133 -2.1211,-4.7344 -4.7344,-4.7344 z"
       id="path8"
       inkscape:connector-curvature="0" />
    <path
       d="m 380.3,374.32 c 0,6.3164 -9.4727,6.3164 -9.4727,0 0,-6.3125 9.4727,-6.3125 9.4727,0"
       id="path10"
       inkscape:connector-curvature="0" />
    <path
       d="m 380.3,401.16 c 0,6.3125 -9.4727,6.3125 -9.4727,0 0,-6.3164 9.4727,-6.3164 9.4727,0"
       id="path12"
       inkscape:connector-curvature="0" />
    <path
       d="m 429.08,359.92 h -26.242 c -2.6172,0 -4.7344,2.1211 -4.7344,4.7344 v 46.176 c 0,2.6172 2.1172,4.7344 4.7344,4.7344 h 26.242 c 2.6172,0 4.7344,-2.1172 4.7344,-4.7344 v -46.176 c 0,-2.6133 -2.1172,-4.7344 -4.7344,-4.7344 z m -4.7383,46.176 h -16.77 v -36.703 h 16.77 z"
       id="path14"
       inkscape:connector-curvature="0" />
    <path
       d="m 474.07,359.92 h -26.242 c -2.6172,0 -4.7344,2.1211 -4.7344,4.7344 v 46.176 c 0,2.6172 2.1172,4.7344 4.7344,4.7344 h 26.242 c 2.6172,0 4.7344,-2.1172 4.7344,-4.7344 v -46.176 c 0,-2.6133 -2.1133,-4.7344 -4.7344,-4.7344 z m -4.7344,46.176 h -16.77 v -36.703 h 16.77 z"
       id="path16"
       inkscape:connector-curvature="0" />
  </g>
</svg>
