<?xml version="1.0" encoding="UTF-8" standalone="no"?>
<svg
   xmlns:dc="http://purl.org/dc/elements/1.1/"
   xmlns:cc="http://creativecommons.org/ns#"
   xmlns:rdf="http://www.w3.org/1999/02/22-rdf-syntax-ns#"
   xmlns:svg="http://www.w3.org/2000/svg"
   xmlns="http://www.w3.org/2000/svg"
   xmlns:sodipodi="http://sodipodi.sourceforge.net/DTD/sodipodi-0.dtd"
   xmlns:inkscape="http://www.inkscape.org/namespaces/inkscape"
   width="36.700642"
   height="49.9702"
   version="1.1"
   viewBox="0 0 304.61532 414.75266"
   id="svg32"
   sodipodi:docname="egg.svg"
   inkscape:version="0.92.4 (5da689c313, 2019-01-14)">
  <metadata
     id="metadata38">
    <rdf:RDF>
      <cc:Work
         rdf:about="">
        <dc:format>image/svg+xml</dc:format>
        <dc:type
           rdf:resource="http://purl.org/dc/dcmitype/StillImage" />
        <dc:title></dc:title>
      </cc:Work>
    </rdf:RDF>
  </metadata>
  <defs
     id="defs36" />
  <sodipodi:namedview
     pagecolor="#ffffff"
     bordercolor="#666666"
     borderopacity="1"
     objecttolerance="10"
     gridtolerance="10"
     guidetolerance="10"
     inkscape:pageopacity="0"
     inkscape:pageshadow="2"
     inkscape:window-width="1920"
     inkscape:window-height="1009"
     id="namedview34"
     showgrid="false"
     units="px"
     fit-margin-top="0"
     fit-margin-left="0"
     fit-margin-right="0"
     fit-margin-bottom="0"
     scale-x="8.3"
     inkscape:zoom="2.662934"
     inkscape:cx="-22.960281"
     inkscape:cy="-40.67036"
     inkscape:window-x="1912"
     inkscape:window-y="-8"
     inkscape:window-maximized="1"
     inkscape:current-layer="svg32" />
  <g
     id="g30"
     transform="translate(-223.69944,-168.63)">
    <path
       d="m 528.12,419.16 c 0.87891,-32.457 -2.5195,-67.555 -10.664,-103.6 -19.539,-86.562 -77.594,-146.93 -141.23,-146.93 h -0.44141 c -63.629,0 -121.68,60.379 -141.22,146.92 -8.1562,36.105 -11.562,71.262 -10.676,103.77 -0.0352,0.16797 -0.13672,0.30078 -0.15625,0.47656 -0.0937,0.77734 0.0273,1.5234 0.17969,2.25 1.2617,35.891 7.9102,68.387 20.07,94.715 16.883,36.566 53.359,61.5 95.199,65.043 12.332,1.0352 24.855,1.5781 37.246,1.5781 12.23,0 24.508,-0.50781 36.535,-1.5273 41.723,-3.5625 78.137,-28.496 95.031,-65.027 12.184,-26.355 18.84,-58.906 20.102,-94.852 0.16797,-0.75 0.28125,-1.5234 0.18359,-2.332 -0.0195,-0.17188 -0.125,-0.30859 -0.15625,-0.47656 z m -32.746,91.828 c -14.789,32.023 -46.828,53.867 -83.582,57.023 -23.387,1.9336 -47.719,1.9492 -71.438,-0.0508 -36.863,-3.1367 -68.961,-24.984 -83.754,-57.039 -10.48,-22.68 -16.543,-51.117 -18.312,-82.551 42.328,4.6758 89.445,7.2266 137.21,7.2266 48.18,0 95.637,-2.5977 138.22,-7.3516 -1.7617,31.516 -7.8398,60.02 -18.348,82.742 z m -257.48,-96.637 c -0.44922,-30.285 2.7812,-62.82 10.223,-95.742 18.105,-80.176 70.582,-136.09 127.66,-136.09 h 0.21094 c 0.0586,-0.0352 0.16016,-0.008 0.24609,0 57.082,0 109.56,55.93 127.66,136.09 7.4297,32.879 10.66,65.367 10.223,95.613 -84.793,9.6523 -191.2,9.6602 -276.22,0.12891 z"
       id="path2"
       inkscape:connector-curvature="0" />
    <path
       d="m 369.76,447.06 -27.672,56.531 c -1.0508,2.1523 -0.92578,4.6992 0.34766,6.7344 1.2734,2.0352 3.4922,3.2734 5.8945,3.2734 h 55.352 c 2.3906,0 4.6289,-1.2383 5.9023,-3.2734 1.2539,-2.0352 1.3906,-4.5781 0.33984,-6.7344 l -27.68,-56.531 c -2.3398,-4.7812 -10.141,-4.7812 -12.484,0 z m 22.789,52.629 h -33.082 l 16.535,-33.77 z"
       id="path4"
       inkscape:connector-curvature="0" />
    <path
       d="m 493.32,385.43 v 18.062 c 0,3.832 3.1211,6.9531 6.9531,6.9531 3.832,0 6.9531,-3.1211 6.9531,-6.9531 V 385.43 c 0,-3.832 -3.1211,-6.9453 -6.9531,-6.9453 -3.832,0 -6.9531,3.1133 -6.9531,6.9453 z"
       id="path6"
       inkscape:connector-curvature="0" />
    <path
       d="m 472.66,391.68 c -3.832,0 -6.9531,3.1133 -6.9531,6.9453 v 7.2578 c 0,3.832 3.1211,6.9531 6.9531,6.9531 3.832,0 6.9531,-3.1211 6.9531,-6.9531 v -7.2578 c 0,-3.832 -3.1211,-6.9453 -6.9531,-6.9453 z"
       id="path8"
       inkscape:connector-curvature="0" />
    <path
       d="m 445.03,378.48 c -3.832,0 -6.9531,3.1133 -6.9531,6.9453 v 22.168 c 0,3.832 3.1211,6.9531 6.9531,6.9531 3.832,0 6.9531,-3.1211 6.9531,-6.9531 v -22.168 c 0,-3.832 -3.1211,-6.9453 -6.9531,-6.9453 z"
       id="path10"
       inkscape:connector-curvature="0" />
    <path
       d="m 417.42,391.68 c -3.832,0 -6.9531,3.1133 -6.9531,6.9453 v 10.09 c 0,3.832 3.1211,6.9531 6.9531,6.9531 3.832,0 6.9531,-3.1211 6.9531,-6.9531 v -10.09 c 0,-3.832 -3.1211,-6.9453 -6.9531,-6.9453 z"
       id="path12"
       inkscape:connector-curvature="0" />
    <path
       d="m 389.8,378.48 c -3.832,0 -6.9453,3.1133 -6.9453,6.9453 v 23.848 c 0,3.832 3.1133,6.9531 6.9453,6.9531 3.832,0 6.9531,-3.1211 6.9531,-6.9531 v -23.848 c 0.004,-3.832 -3.1172,-6.9453 -6.9531,-6.9453 z"
       id="path14"
       inkscape:connector-curvature="0" />
    <path
       d="m 362.2,391.68 c -3.832,0 -6.9453,3.1133 -6.9453,6.9453 v 10.719 c 0,3.832 3.1133,6.9531 6.9453,6.9531 3.832,0 6.9453,-3.1211 6.9453,-6.9531 v -10.719 c 0,-3.832 -3.1133,-6.9453 -6.9453,-6.9453 z"
       id="path16"
       inkscape:connector-curvature="0" />
    <path
       d="m 333.58,378.48 c -3.832,0 -6.9453,3.1133 -6.9453,6.9453 v 23.285 c 0,3.832 3.1133,6.9531 6.9453,6.9531 3.832,0 6.9453,-3.1211 6.9453,-6.9531 v -23.285 c 0,-3.832 -3.1133,-6.9453 -6.9453,-6.9453 z"
       id="path18"
       inkscape:connector-curvature="0" />
    <path
       d="m 306.96,391.68 c -3.832,0 -6.9453,3.1133 -6.9453,6.9453 v 8.9727 c 0,3.832 3.1133,6.9531 6.9453,6.9531 3.832,0 6.9453,-3.1211 6.9453,-6.9531 v -8.9727 c 0,-3.832 -3.1133,-6.9453 -6.9453,-6.9453 z"
       id="path20"
       inkscape:connector-curvature="0" />
    <path
       d="m 279.35,378.48 c -3.832,0 -6.9453,3.1133 -6.9453,6.9453 v 20.523 c 0,3.832 3.1133,6.9531 6.9453,6.9531 3.832,0 6.9453,-3.1211 6.9453,-6.9531 v -20.523 c 0,-3.832 -3.1094,-6.9453 -6.9453,-6.9453 z"
       id="path22"
       inkscape:connector-curvature="0" />
    <path
       d="m 251.74,391.68 c -3.832,0 -6.9453,3.1133 -6.9453,6.9453 v 4.9688 c 0,3.832 3.1133,6.9531 6.9453,6.9531 3.832,0 6.9453,-3.1211 6.9453,-6.9531 v -4.9688 c 0,-3.832 -3.1133,-6.9453 -6.9453,-6.9453 z"
       id="path24"
       inkscape:connector-curvature="0" />
    <path
       d="m 442.95,230.23 c -2.75,-2.7148 -7.1406,-2.6719 -9.8203,0.0586 -2.6953,2.7305 -2.6797,7.1328 0.0508,9.8281 11.16,11.008 26.203,30.25 34.5,59.371 0.86328,3.0547 3.6445,5.0391 6.6836,5.0391 0.62891,0 1.2734,-0.0859 1.8984,-0.26172 3.6953,-1.0508 5.8359,-4.9023 4.7812,-8.5898 -9.125,-32.023 -25.766,-53.266 -38.094,-65.445 z"
       id="path26"
       inkscape:connector-curvature="0" />
    <path
       d="m 420.69,212.86 c -3.4102,-1.7734 -7.582,-0.47266 -9.3789,2.875 -1.7969,3.375 -0.54297,7.5625 2.8164,9.3789 0.20312,0.10156 2.2227,1.2227 5.4102,3.4688 1.2031,0.86328 2.6133,1.2734 4.0039,1.2734 2.1719,0 4.3242,-1.0156 5.6836,-2.9336 2.207,-3.1367 1.457,-7.4727 -1.6797,-9.6836 -4.2266,-2.9961 -6.8555,-4.3789 -6.8555,-4.3789 z"
       id="path28"
       inkscape:connector-curvature="0" />
  </g>
</svg>
