<?xml version="1.0" encoding="UTF-8" standalone="no"?>
<svg
   xmlns:dc="http://purl.org/dc/elements/1.1/"
   xmlns:cc="http://creativecommons.org/ns#"
   xmlns:rdf="http://www.w3.org/1999/02/22-rdf-syntax-ns#"
   xmlns:svg="http://www.w3.org/2000/svg"
   xmlns="http://www.w3.org/2000/svg"
   xmlns:sodipodi="http://sodipodi.sourceforge.net/DTD/sodipodi-0.dtd"
   xmlns:inkscape="http://www.inkscape.org/namespaces/inkscape"
   width="52.6185"
   height="50.984867"
   version="1.1"
   viewBox="0 0 473.5665 458.8638"
   id="svg25"
   sodipodi:docname="pomodoro.svg"
   inkscape:version="0.92.4 (5da689c313, 2019-01-14)">
  <metadata
     id="metadata29">
    <rdf:RDF>
      <cc:Work
         rdf:about="">
        <dc:format>image/svg+xml</dc:format>
        <dc:type
           rdf:resource="http://purl.org/dc/dcmitype/StillImage" />
        <dc:title></dc:title>
      </cc:Work>
    </rdf:RDF>
  </metadata>
  <sodipodi:namedview
     pagecolor="#ffffff"
     bordercolor="#666666"
     borderopacity="1"
     objecttolerance="10"
     gridtolerance="10"
     guidetolerance="10"
     inkscape:pageopacity="0"
     inkscape:pageshadow="2"
     inkscape:window-width="1920"
     inkscape:window-height="1009"
     id="namedview27"
     showgrid="false"
     units="px"
     fit-margin-top="0"
     fit-margin-left="0"
     fit-margin-right="0"
     fit-margin-bottom="0"
     inkscape:zoom="0.23537234"
     inkscape:cx="478.13167"
     inkscape:cy="-425.91745"
     inkscape:window-x="1912"
     inkscape:window-y="-8"
     inkscape:window-maximized="1"
     inkscape:current-layer="svg25" />
  <defs
     id="defs5">
    <clipPath
       id="a">
      <path
         d="M 139.21,242 H 612.79 V 606 H 139.21 Z"
         id="path2"
         inkscape:connector-curvature="0" />
    </clipPath>
  </defs>
  <path
     d="m 111,355.18381 c -2.1836,0.004 -4.2539,-0.95313 -5.6602,-2.6211 -6.1094,-7.2461 -11.387,-15.16 -15.723,-23.586 -0.90234,-1.7461 -1.0742,-3.7773 -0.47656,-5.6484 0.59766,-1.8711 1.9141,-3.4258 3.6602,-4.3281 1.7422,-0.89844 3.7734,-1.0664 5.6445,-0.46875 1.8711,0.60156 3.4258,1.918 4.3242,3.6641 3.8281,7.4375 8.4805,14.418 13.875,20.812 1.8555,2.1992 2.2695,5.2773 1.0586,7.8906 -1.2109,2.6094 -3.8242,4.2852 -6.7031,4.2852 z"
     id="path7"
     inkscape:connector-curvature="0" />
  <path
     d="m 84.83,310.79381 c -3.3281,0 -6.2461,-2.2266 -7.125,-5.4414 -2.4648,-8.9844 -3.7148,-18.262 -3.707,-27.582 -0.0195,-14.148 2.8828,-28.148 8.5273,-41.121 6.043,-12.773 14.156,-24.465 24.008,-34.594 11.113,-10.645 24.355,-18.816 38.855,-23.98 1.8359,-0.69141 3.875,-0.625 5.6602,0.18359 1.7891,0.8125 3.1797,2.3008 3.8711,4.1367 0.69141,1.8398 0.62109,3.875 -0.19141,5.6641 -0.80859,1.7852 -2.3008,3.1797 -4.1367,3.8672 -12.547,4.4375 -24.016,11.477 -33.652,20.648 -8.5039,8.8438 -15.547,18.98 -20.871,30.031 -4.8164,11.098 -7.293,23.07 -7.2695,35.164 -0.004,7.9961 1.0625,15.957 3.1719,23.668 0.60937,2.2266 0.14453,4.6094 -1.2578,6.4414 -1.3984,1.8359 -3.5742,2.9141 -5.8828,2.9141 z"
     id="path9"
     inkscape:connector-curvature="0" />
  <path
     d="m 332.99,399.58381 c -3.6055,0 -6.6836,-2.5938 -7.293,-6.1445 -0.60938,-3.5508 1.4258,-7.0234 4.8203,-8.2266 22.391,-7.8906 41.82,-22.461 55.664,-41.746 2.3906,-3.3008 7.0039,-4.043 10.312,-1.6641 3.3086,2.3828 4.0664,6.9883 1.6953,10.305 -15.598,21.738 -37.492,38.164 -62.73,47.051 -0.79297,0.28125 -1.6289,0.42578 -2.4688,0.42578 z"
     id="path11"
     inkscape:connector-curvature="0" />
  <g
     clip-path="url(#a)"
     id="g15"
     transform="translate(-139.21,-146.58619)">
    <path
       d="m 440.97,605.45 c -11.832,-0.004 -23.621,-1.418 -35.121,-4.2109 -18.57,-4.5391 -37.93,-4.7773 -56.609,-0.70312 -29.297,6.8242 -59.914,5.3516 -88.422,-4.25 -25.141,-8.8633 -48.051,-23.098 -67.137,-41.707 -26.105,-25.207 -43.902,-57.773 -51.012,-93.359 -7.1133,-35.582 -3.2031,-72.488 11.207,-105.79 9.7812,-21.398 23.238,-40.914 39.762,-57.664 44.789,-44.402 106.09,-53.23 130.36,-54.965 l -0.004,0.004 c 4.0781,-0.29297 7.6172,2.7773 7.9102,6.8516 0.29297,4.0781 -2.7773,7.6172 -6.8555,7.9102 -22.633,1.6133 -79.719,9.793 -121,50.707 -15.145,15.449 -27.523,33.387 -36.594,53.031 -13.223,30.551 -16.809,64.41 -10.277,97.051 6.5312,32.645 22.867,62.516 46.828,85.629 17.562,17.117 38.641,30.203 61.77,38.355 25.902,8.6797 53.711,9.9727 80.309,3.7383 11.578,-2.5273 23.434,-3.5742 35.277,-3.125 9.4258,0.375 18.789,1.6797 27.957,3.8945 24.699,6.0586 50.617,4.8711 74.656,-3.418 32.781,-11.223 61.359,-32.18 81.922,-60.07 28.344,-38.277 38.578,-87.016 28.023,-133.46 -8.0781,-30.711 -23.922,-58.828 -46.008,-81.645 -32.488,-31.094 -75.301,-49.121 -120.25,-50.637 -4.0703,-0.17188 -7.2383,-3.5977 -7.0859,-7.668 0.15234,-4.0742 3.5625,-7.2578 7.6367,-7.125 48.668,1.6797 95.008,21.246 130.15,54.957 24.008,24.828 41.219,55.418 49.977,88.828 5.6914,25.023 5.9102,50.984 0.64062,76.102 -5.2695,25.117 -15.902,48.801 -31.172,69.43 -22.34,30.301 -53.387,53.074 -89,65.281 -15.391,5.3203 -31.566,8.0312 -47.852,8.0273 z"
       id="path13"
       inkscape:connector-curvature="0" />
  </g>
  <path
     d="m 332.64,162.81381 c -4.6406,0 -9.2852,-0.18359 -13.91,-0.55078 -13.52,-1.1211 -26.867,-3.7656 -39.789,-7.8828 -14.902,-4.7578 -29.125,-11.43 -42.309,-19.844 -13.812,8.125 -28.531,14.598 -43.859,19.277 -24.242,7.3828 -49.648,10.195 -74.922,8.293 -3.293,-0.23828 -6.0312,-2.6367 -6.7031,-5.8711 -0.67578,-3.2344 0.87891,-6.5234 3.8086,-8.0586 15.148,-7.9961 29.535,-17.359 42.98,-27.977 7.2031,-6.3555 14.078,-13.082 20.586,-20.148 l 1.3594,-1.476596 c 2.7812,-2.9688 7.4375,-3.1367 10.422,-0.375 2.9883,2.757796 3.1875,7.414096 0.44922,10.417996 l -1.3438,1.4688 h -0.004 c -6.8867,7.4727 -14.16,14.582 -21.785,21.301 -7.0078,5.8789 -14.418,11.258 -22.18,16.098 14.594,-0.92969 29.027,-3.5547 43.012,-7.8281 15.621,-4.7734 30.559,-11.547 44.441,-20.152 2.4727,-1.5352 5.6172,-1.4766 8.0312,0.15625 13.117,8.8555 27.434,15.797 42.512,20.621 11.84,3.7734 24.07,6.1992 36.457,7.2227 1.707,0.13672 3.4023,0.24219 5.1094,0.32422 -6.6562,-5.0703 -13.059,-10.418 -19.207,-16.051 l -0.004,0.004 c -7.9961,-7.3242 -15.559,-15.109 -22.652,-23.312 -2.6719,-3.0938 -2.332,-7.7656 0.76172,-10.437996 3.09372,-2.6724 7.7656,-2.332 10.438,0.76172 6.7109,7.765596 13.871,15.136996 21.441,22.069996 11.18,10.223 23.219,19.469 35.988,27.629 2.668,1.7031 3.957,4.9141 3.207,7.9883 -0.75,3.0781 -3.3711,5.3359 -6.5273,5.6172 -5.2383,0.47266 -10.52,0.71484 -15.809,0.71484 z"
     id="path17"
     inkscape:connector-curvature="0" />
  <path
     d="m 288.73,111.00381 c -2.875,-0.004 -5.4883,-1.6758 -6.7031,-4.2812 -1.2109,-2.6055 -0.80469,-5.6797 1.043,-7.882796 2.8164,-3.3516 5.7969,-6.7773 8.9961,-10.203 12.906,-13.621 27.742,-25.277 44.031,-34.594 -8.1875,-1.8516 -16.586,-2.6094 -24.973,-2.2461 -18.969,0.95312 -37.234,7.4883 -52.5,18.785 -1.5859,1.1562 -3.5664,1.6367 -5.5039,1.3359 -1.9414,-0.30078 -3.6797,-1.3633 -4.8359,-2.9453 -2.4102,-3.3008 -1.6914,-7.9336 1.6094,-10.344 17.621,-13.02 38.695,-20.539 60.578,-21.617 16.324,-0.71484 32.602,2.2422 47.629,8.6562 2.6836,1.1484 4.4414,3.7656 4.4883,6.6875 0.043,2.918 -1.6328,5.5938 -4.2773,6.8242 -20.832,9.5547 -39.652,22.988 -55.457,39.59 -2.9922,3.203096 -5.7969,6.437496 -8.4531,9.597696 v -0.004 c -1.4062,1.6758 -3.4844,2.6406 -5.6719,2.6406 z"
     id="path19"
     inkscape:connector-curvature="0" />
  <path
     d="m 185.29,111.00381 c -1.7695,0.004 -3.4805,-0.63281 -4.8203,-1.7852 l -59.492,-51.132996 c -1.9219,-1.6484 -2.8672,-4.1602 -2.5078,-6.6641 0.35547,-2.5039 1.9648,-4.6484 4.2695,-5.6953 12.574,-5.7422 26.234,-8.7148 40.055,-8.7227 22.219,0.25 43.719,7.8945 61.113,21.719 3.207,2.5312 3.7578,7.1836 1.2266,10.395 -2.5273,3.207 -7.1797,3.7578 -10.391,1.2266 -14.777,-11.773 -33.055,-18.293 -51.949,-18.539 -7.668,-0.004 -15.297,1.0859 -22.66,3.2266 l 49.977,42.957 c 2.3477,2.015596 3.1953,5.281196 2.1211,8.183596 -1.0781,2.9023 -3.8477,4.832 -6.9414,4.832 z"
     id="path21"
     inkscape:connector-curvature="0" />
  <path
     d="m 251.6,103.59381 c -0.20312,0 -0.41016,-0.008 -0.62109,-0.0234 -1.957,-0.16406 -3.7656,-1.0977 -5.0352,-2.5938 -1.2656,-1.499996 -1.8867,-3.441396 -1.7227,-5.394496 l 6.7266,-80.781 -28.312,-0.004 6.7266,80.781 0.004,0.004 c 0.16406,1.9531 -0.45703,3.8945 -1.7227,5.394496 -1.2695,1.4961 -3.0781,2.4297 -5.0352,2.5938 -1.9609,0.1875 -3.9141,-0.42188 -5.418,-1.6953 -1.5039,-1.2734 -2.4297,-3.101596 -2.5664,-5.066396 l -7.3984,-88.7970002 h -0.004 c -0.17188,-2.0625 0.52344,-4.1016 1.9258,-5.625 1.4023,-1.52340002 3.3789,-2.39060002 5.4453,-2.386700024588 h 44.398 c 2.0703,-0.0039999954 4.0469,0.863280004588 5.4492,2.386700024588 1.4023,1.5234 2.0977,3.5625 1.9219,5.625 l -7.3984,88.7970002 c -0.31641,3.831996 -3.5195,6.781196 -7.3633,6.785196 z"
     id="path23"
     inkscape:connector-curvature="0" />
</svg>
