<?xml version="1.0" encoding="UTF-8" standalone="no"?>
<svg
   xmlns:dc="http://purl.org/dc/elements/1.1/"
   xmlns:cc="http://creativecommons.org/ns#"
   xmlns:rdf="http://www.w3.org/1999/02/22-rdf-syntax-ns#"
   xmlns:svg="http://www.w3.org/2000/svg"
   xmlns="http://www.w3.org/2000/svg"
   xmlns:sodipodi="http://sodipodi.sourceforge.net/DTD/sodipodi-0.dtd"
   xmlns:inkscape="http://www.inkscape.org/namespaces/inkscape"
   width="42.481464"
   height="49.829956"
   version="1.1"
   viewBox="0 0 373.83688 438.50361"
   id="svg4"
   sodipodi:docname="sand.svg"
   inkscape:version="0.92.4 (5da689c313, 2019-01-14)">
  <metadata
     id="metadata10">
    <rdf:RDF>
      <cc:Work
         rdf:about="">
        <dc:format>image/svg+xml</dc:format>
        <dc:type
           rdf:resource="http://purl.org/dc/dcmitype/StillImage" />
        <dc:title></dc:title>
      </cc:Work>
    </rdf:RDF>
  </metadata>
  <defs
     id="defs8" />
  <sodipodi:namedview
     pagecolor="#ffffff"
     bordercolor="#666666"
     borderopacity="1"
     objecttolerance="10"
     gridtolerance="10"
     guidetolerance="10"
     inkscape:pageopacity="0"
     inkscape:pageshadow="2"
     inkscape:window-width="1920"
     inkscape:window-height="1009"
     id="namedview6"
     showgrid="false"
     fit-margin-top="0"
     fit-margin-left="0"
     fit-margin-right="0"
     fit-margin-bottom="0"
     units="px"
     scale-x="8.8"
     inkscape:zoom="0.94148936"
     inkscape:cx="59.666405"
     inkscape:cy="218.52516"
     inkscape:window-x="1912"
     inkscape:window-y="-8"
     inkscape:window-maximized="1"
     inkscape:current-layer="svg4" />
  <path
     d="m 366.4385,423.7068 h -3.3281 l -0.004,-408.91 h 3.332 c 4.0859,0 7.3984,-3.3125 7.3984,-7.3984 C 373.8368,3.3125 370.5243,0 366.4384,0 H 7.3984 C 3.3125,0 0,3.3125 0,7.3984 c 0,4.0859 3.3125,7.3984 7.3984,7.3984 h 3.3281 l 0.004,408.91 h -3.332 c -4.0859,0 -7.3984,3.3125 -7.3984,7.3984 0,4.0859 3.3125,7.3984 7.3984,7.3984 h 359.04 c 4.0859,0 7.3984,-3.3125 7.3984,-7.3984 0,-4.0859 -3.3125,-7.3984 -7.3984,-7.3984 z m -17.832,0 h -14.801 c -2.1445,-15.242 -10.508,-35.816 -31.672,-39.59 2.3867,-33.391 -6.6953,-66.598 -25.75,-94.125 -12.109,-18.418 -29.492,-32.754 -49.875,-41.141 -13.617,-6.1445 -23.605,-10.953 -32.188,-29.602 8.6562,-18.871 18.648,-23.68 32.262,-30.043 20.227,-8.4023 37.488,-22.652 49.578,-40.918 19.094,-27.617 28.156,-60.938 25.676,-94.422 20.867,-3.7734 29.598,-23.828 31.523,-39.07 h 15.242 z m -294.88,0 c 1.7773,-10.137 7.3984,-27.305 25.527,-27.305 l 215.48,-0.004 c 18.129,0 23.754,17.168 25.527,27.305 z m 54.832,-126.24 -0.004,-0.004 c 10.699,-16.453 26.199,-29.215 44.398,-36.555 14.117,-5.2109 26.074,-15.008 33.965,-27.82 7.9102,12.824 19.898,22.621 34.039,27.82 18.203,7.3398 33.703,20.102 44.398,36.555 17.379,25.125 25.633,55.445 23.383,85.91 h -13.023 l -83.617,-68.742 c -2.6719,-2.0859 -6.4258,-2.0859 -9.1016,0 l -84.875,68.742 h -13.094 c -2.25,-30.465 6,-60.785 23.383,-85.91 z m 211.55,-282.67 c -1.7734,10.211 -7.3984,26.863 -25.379,26.863 h -215.63 c -17.98,0 -23.605,-16.652 -25.379,-26.863 z m -235.09,39.738 h 203.79 c 2.2617,30.492 -5.9922,60.836 -23.383,85.984 -3.1445,4.4414 -6.5547,8.6914 -10.211,12.727 h -136.6 c -3.6562,-4.0352 -7.0664,-8.2852 -10.211,-12.727 -17.391,-25.148 -25.645,-55.492 -23.383,-85.984 z m 153.69,112.92 c -5.6719,3.6484 -11.609,6.8633 -17.762,9.6211 -14.141,5.1992 -26.129,14.996 -34.039,27.82 -7.9062,-12.824 -19.895,-22.621 -34.039,-27.82 -6.1484,-2.7578 -12.086,-5.9727 -17.758,-9.6211 z m -117.58,215.92 66.598,-53.797 65.414,53.797 z m -96.195,-368.58 h 14.801 c 2.293,15.242 10.73,35.297 31.598,39.07 h -0.004 c -2.0859,33.516 7.3672,66.73 26.785,94.125 12.09,18.27 29.352,32.516 49.578,40.922 13.617,6.3633 23.605,11.172 32.262,30.043 -8.6562,18.941 -18.648,23.754 -32.262,30.117 v -0.004 c -20.242,8.3789 -37.512,22.633 -49.578,40.922 -19.051,27.527 -28.137,60.734 -25.75,94.125 -21.164,3.7734 -29.598,24.344 -31.672,39.59 h -14.801 z"
     id="path2"
     inkscape:connector-curvature="0" />
</svg>
